<?xml version="1.0" encoding="UTF-8"?>
<svg width="128" height="128" viewBox="0 0 128 128" xmlns="http://www.w3.org/2000/svg">
    <rect width="128" height="128" rx="20" fill="#FF0000"/>
    <path d="M64 32C45.2 32 30 47.2 30 66C30 84.8 45.2 100 64 100C82.8 100 98 84.8 98 66C98 47.2 82.8 32 64 32ZM64 92C49.6 92 38 80.4 38 66C38 51.6 49.6 40 64 40C78.4 40 90 51.6 90 66C90 80.4 78.4 92 64 92Z" fill="white"/>
    <path d="M64 48C53 48 44 57 44 68C44 79 53 88 64 88C75 88 84 79 84 68C84 57 75 48 64 48Z" fill="white"/>
    <path d="M64 56C58.5 56 54 60.5 54 66C54 71.5 58.5 76 64 76C69.5 76 74 71.5 74 66C74 60.5 69.5 56 64 56Z" fill="white"/>
</svg> 